<svg xmlns="http://www.w3.org/2000/svg" viewBox="0 0 800 700">
  <!-- Background -->
  <rect width="100%" height="100%" fill="#f4f4f4"/>
  
  <!-- VPC Border -->
  <rect x="30" y="100" width="740" height="550" fill="#E1F5FE" stroke="#0277BD" stroke-width="3" stroke-dasharray="10,5" rx="15"/>
  <text x="400" y="140" text-anchor="middle" font-size="18" font-weight="bold" fill="#0277BD">VPC (10.0.0.0/16)</text>
  
  <!-- Internet -->
  <rect x="50" y="30" width="700" height="50" fill="#e0e0e0" stroke="#333" stroke-width="2"/>
  <text x="400" y="60" text-anchor="middle" font-size="18" font-weight="bold">Internet</text>
  
  <!-- Internet Gateway -->
  <rect x="350" y="150" width="100" height="50" fill="#B0BEC5" stroke="#455A64" stroke-width="2" rx="10"/>
  <text x="400" y="180" text-anchor="middle" font-size="12">Internet Gateway</text>
  
  <!-- Load Balancer -->
  <rect x="150" y="230" width="500" height="70" fill="#90CAF9" stroke="#1565C0" stroke-width="2" rx="10"/>
  <text x="400" y="270" text-anchor="middle" font-size="16" font-weight="bold">Application Load Balancer</text>
  
  <!-- Subnets -->
  <rect x="50" y="330" width="340" height="150" fill="#A5D6A7" stroke="#2E7D32" stroke-width="2" rx="10"/>
  <text x="220" y="350" text-anchor="middle" font-size="14" font-weight="bold">Public Subnet (10.0.10.0/24)</text>
  
  <rect x="410" y="330" width="340" height="150" fill="#80CBC4" stroke="#00695C" stroke-width="2" rx="10"/>
  <text x="580" y="350" text-anchor="middle" font-size="14" font-weight="bold">Private Subnet (10.0.11.0/24)</text>
  
  <!-- Auto Scaling Group -->
  <rect x="200" y="370" width="400" height="70" fill="#F48FB1" stroke="#880E4F" stroke-width="2" rx="10"/>
  <text x="400" y="410" text-anchor="middle" font-size="16" font-weight="bold">Auto Scaling Group</text>
  
  <!-- EC2 Instances -->
  <rect x="100" y="510" width="200" height="70" fill="#FFD54F" stroke="#F57F17" stroke-width="2" rx="10"/>
  <text x="200" y="550" text-anchor="middle" font-size="14">Public EC2</text>
  
  <rect x="500" y="510" width="200" height="70" fill="#FFD54F" stroke="#F57F17" stroke-width="2" rx="10"/>
  <text x="600" y="550" text-anchor="middle" font-size="14">Private EC2</text>
  
  <!-- DynamoDB -->
  <rect x="300" y="630" width="200" height="70" fill="#FFAB91" stroke="#E64A19" stroke-width="2" rx="10"/>
  <text x="400" y="660" text-anchor="middle" font-size="14">DynamoDB</text>
  
  <!-- VPC Endpoint for DynamoDB -->
  <rect x="300" y="530" width="200" height="50" fill="#B39DDB" stroke="#6200EA" stroke-width="2" rx="10"/>
  <text x="400" y="555" text-anchor="middle" font-size="12">VPC Endpoint for DynamoDB</text>
  
  <!-- Security Groups & IAM Roles -->
  <rect x="50" y="710" width="200" height="40" fill="#B0BEC5" stroke="#455A64" stroke-width="2" rx="10"/>
  <text x="150" y="735" text-anchor="middle" font-size="12">Security Groups</text>
  
  <rect x="550" y="710" width="200" height="40" fill="#B0BEC5" stroke="#455A64" stroke-width="2" rx="10"/>
  <text x="650" y="735" text-anchor="middle" font-size="12">IAM Roles</text>
  
  <!-- Arrows -->
  <!-- Internet to Internet Gateway -->
  <path d="M400 80 L400 150" stroke="#666" stroke-width="2" marker-end="url(#arrowhead)"/>
  
  <!-- Internet Gateway to Load Balancer -->
  <path d="M400 200 L400 230" stroke="#666" stroke-width="2" marker-end="url(#arrowhead)"/>
  
  <!-- Load Balancer to Auto Scaling Group -->
  <path d="M400 300 L400 370" stroke="#666" stroke-width="2" marker-end="url(#arrowhead)"/>
  
  <!-- Auto Scaling Group to EC2 Instances -->
  <path d="M200 440 L200 510" stroke="#666" stroke-width="2" marker-end="url(#arrowhead)"/>
  <path d="M600 440 L600 510" stroke="#666" stroke-width="2" marker-end="url(#arrowhead)"/>
  
  <!-- EC2 Instances to VPC Endpoint -->
  <path d="M200 580 L350 555" stroke="#666" stroke-width="2" marker-end="url(#arrowhead)"/>
  <path d="M600 580 L450 555" stroke="#666" stroke-width="2" marker-end="url(#arrowhead)"/>
  
  <!-- VPC Endpoint to DynamoDB -->
  <path d="M400 580 L400 630" stroke="#666" stroke-width="2" marker-end="url(#arrowhead)"/>
  
  <!-- Security Groups and IAM Roles to EC2 -->
  <path d="M150 710 L200 580" stroke="#666" stroke-width="1" stroke-dasharray="5,5"/>
  <path d="M650 710 L600 580" stroke="#666" stroke-width="1" stroke-dasharray="5,5"/>
  
  <!-- Arrowhead Marker Definition -->
  <defs>
    <marker id="arrowhead" markerWidth="10" markerHeight="7" 
    refX="0" refY="3.5" orient="auto">
      <polygon points="0 0, 10 3.5, 0 7" fill="#666"/>
    </marker>
  </defs>
</svg>
